<?xml version="1.0" encoding="utf-8" standalone="no"?>
<!DOCTYPE svg PUBLIC "-//W3C//DTD SVG 1.1//EN"
  "http://www.w3.org/Graphics/SVG/1.1/DTD/svg11.dtd">
<svg xmlns:xlink="http://www.w3.org/1999/xlink" width="435.183437pt" height="312.64pt" viewBox="0 0 435.183437 312.64" xmlns="http://www.w3.org/2000/svg" version="1.1">
 <metadata>
  <rdf:RDF xmlns:dc="http://purl.org/dc/elements/1.1/" xmlns:cc="http://creativecommons.org/ns#" xmlns:rdf="http://www.w3.org/1999/02/22-rdf-syntax-ns#">
   <cc:Work>
    <dc:type rdf:resource="http://purl.org/dc/dcmitype/StillImage"/>
    <dc:date>2025-04-02T14:33:18.488082</dc:date>
    <dc:format>image/svg+xml</dc:format>
    <dc:creator>
     <cc:Agent>
      <dc:title>Matplotlib v3.8.4, https://matplotlib.org/</dc:title>
     </cc:Agent>
    </dc:creator>
   </cc:Work>
  </rdf:RDF>
 </metadata>
 <defs>
  <style type="text/css">*{stroke-linejoin: round; stroke-linecap: butt}</style>
 </defs>
 <g id="figure_1">
  <g id="patch_1">
   <path d="M 0 312.64 
L 435.183437 312.64 
L 435.183437 0 
L 0 0 
L 0 312.64 
z
" style="fill: none"/>
  </g>
  <g id="axes_1">
   <g id="patch_2">
    <path d="M 37.383437 288.54 
L 427.983438 288.54 
L 427.983438 11.34 
L 37.383437 11.34 
L 37.383437 288.54 
z
" style="fill: none"/>
   </g>
   <g id="patch_3">
    <path d="M 55.137983 275.21565 
L 165.33861 275.21565 
L 165.33861 181.029486 
L 55.137983 181.029486 
z
" clip-path="url(#pecbe71a0d1)" style="fill: #005f73; stroke: #000000; stroke-width: 0.8; stroke-linejoin: miter"/>
   </g>
   <g id="patch_4">
    <path d="M 177.583124 275.21565 
L 287.783751 275.21565 
L 287.783751 207.820966 
L 177.583124 207.820966 
z
" clip-path="url(#pecbe71a0d1)" style="fill: #005f73; stroke: #000000; stroke-width: 0.8; stroke-linejoin: miter"/>
   </g>
   <g id="patch_5">
    <path d="M 300.028265 275.21565 
L 410.228892 275.21565 
L 410.228892 241.932801 
L 300.028265 241.932801 
z
" clip-path="url(#pecbe71a0d1)" style="fill: #005f73; stroke: #000000; stroke-width: 0.8; stroke-linejoin: miter"/>
   </g>
   <g id="patch_6">
    <path d="M 55.137983 181.029486 
L 165.33861 181.029486 
L 165.33861 66.598141 
L 55.137983 66.598141 
z
" clip-path="url(#pecbe71a0d1)" style="fill: #0a9396; stroke: #000000; stroke-width: 0.8; stroke-linejoin: miter"/>
   </g>
   <g id="patch_7">
    <path d="M 177.583124 207.820966 
L 287.783751 207.820966 
L 287.783751 107.831513 
L 177.583124 107.831513 
z
" clip-path="url(#pecbe71a0d1)" style="fill: #0a9396; stroke: #000000; stroke-width: 0.8; stroke-linejoin: miter"/>
   </g>
   <g id="patch_8">
    <path d="M 300.028265 241.932801 
L 410.228892 241.932801 
L 410.228892 172.988541 
L 300.028265 172.988541 
z
" clip-path="url(#pecbe71a0d1)" style="fill: #0a9396; stroke: #000000; stroke-width: 0.8; stroke-linejoin: miter"/>
   </g>
   <g id="patch_9">
    <path d="M 55.137983 66.598141 
L 165.33861 66.598141 
L 165.33861 63.690255 
L 55.137983 63.690255 
z
" clip-path="url(#pecbe71a0d1)" style="fill: #94d2bd; stroke: #000000; stroke-width: 0.8; stroke-linejoin: miter"/>
   </g>
   <g id="patch_10">
    <path d="M 177.583124 107.831513 
L 287.783751 107.831513 
L 287.783751 105.601761 
L 177.583124 105.601761 
z
" clip-path="url(#pecbe71a0d1)" style="fill: #94d2bd; stroke: #000000; stroke-width: 0.8; stroke-linejoin: miter"/>
   </g>
   <g id="patch_11">
    <path d="M 300.028265 172.988541 
L 410.228892 172.988541 
L 410.228892 171.605643 
L 300.028265 171.605643 
z
" clip-path="url(#pecbe71a0d1)" style="fill: #94d2bd; stroke: #000000; stroke-width: 0.8; stroke-linejoin: miter"/>
   </g>
   <g id="patch_12">
    <path d="M 55.137983 63.690255 
L 165.33861 63.690255 
L 165.33861 12.225847 
L 55.137983 12.225847 
z
" clip-path="url(#pecbe71a0d1)" style="fill: #e9d8a6; stroke: #000000; stroke-width: 0.8; stroke-linejoin: miter"/>
   </g>
   <g id="patch_13">
    <path d="M 177.583124 105.601761 
L 287.783751 105.601761 
L 287.783751 66.822684 
L 177.583124 66.822684 
z
" clip-path="url(#pecbe71a0d1)" style="fill: #e9d8a6; stroke: #000000; stroke-width: 0.8; stroke-linejoin: miter"/>
   </g>
   <g id="patch_14">
    <path d="M 300.028265 171.605643 
L 410.228892 171.605643 
L 410.228892 150.796296 
L 300.028265 150.796296 
z
" clip-path="url(#pecbe71a0d1)" style="fill: #e9d8a6; stroke: #000000; stroke-width: 0.8; stroke-linejoin: miter"/>
   </g>
   <g id="patch_15">
    <path d="M 55.137983 12.225847 
L 165.33861 12.225847 
L 165.33861 11.34 
L 55.137983 11.34 
z
" clip-path="url(#pecbe71a0d1)" style="fill: #ee9b00; stroke: #000000; stroke-width: 0.8; stroke-linejoin: miter"/>
   </g>
   <g id="patch_16">
    <path d="M 177.583124 66.822684 
L 287.783751 66.822684 
L 287.783751 66.116881 
L 177.583124 66.116881 
z
" clip-path="url(#pecbe71a0d1)" style="fill: #ee9b00; stroke: #000000; stroke-width: 0.8; stroke-linejoin: miter"/>
   </g>
   <g id="patch_17">
    <path d="M 300.028265 150.796296 
L 410.228892 150.796296 
L 410.228892 150.316585 
L 300.028265 150.316585 
z
" clip-path="url(#pecbe71a0d1)" style="fill: #ee9b00; stroke: #000000; stroke-width: 0.8; stroke-linejoin: miter"/>
   </g>
   <g id="patch_18">
    <path d="M 55.137983 11.34 
L 165.33861 11.34 
L 165.33861 11.34 
L 55.137983 11.34 
z
" clip-path="url(#pecbe71a0d1)" style="fill: #ca6702; stroke: #000000; stroke-width: 0.8; stroke-linejoin: miter"/>
   </g>
   <g id="patch_19">
    <path d="M 177.583124 66.116881 
L 287.783751 66.116881 
L 287.783751 66.116881 
L 177.583124 66.116881 
z
" clip-path="url(#pecbe71a0d1)" style="fill: #ca6702; stroke: #000000; stroke-width: 0.8; stroke-linejoin: miter"/>
   </g>
   <g id="patch_20">
    <path d="M 300.028265 150.316585 
L 410.228892 150.316585 
L 410.228892 150.316585 
L 300.028265 150.316585 
z
" clip-path="url(#pecbe71a0d1)" style="fill: #ca6702; stroke: #000000; stroke-width: 0.8; stroke-linejoin: miter"/>
   </g>
   <g id="patch_21">
    <path d="M 55.137983 11.34 
L 165.33861 11.34 
L 165.33861 11.34 
L 55.137983 11.34 
z
" clip-path="url(#pecbe71a0d1)" style="fill: #bb3e03; stroke: #000000; stroke-width: 0.8; stroke-linejoin: miter"/>
   </g>
   <g id="patch_22">
    <path d="M 177.583124 66.116881 
L 287.783751 66.116881 
L 287.783751 66.116881 
L 177.583124 66.116881 
z
" clip-path="url(#pecbe71a0d1)" style="fill: #bb3e03; stroke: #000000; stroke-width: 0.8; stroke-linejoin: miter"/>
   </g>
   <g id="patch_23">
    <path d="M 300.028265 150.316585 
L 410.228892 150.316585 
L 410.228892 150.316585 
L 300.028265 150.316585 
z
" clip-path="url(#pecbe71a0d1)" style="fill: #bb3e03; stroke: #000000; stroke-width: 0.8; stroke-linejoin: miter"/>
   </g>
   <g id="patch_24">
    <path d="M 55.137983 275.21565 
L 165.33861 275.21565 
L 165.33861 275.21565 
L 55.137983 275.21565 
z
" clip-path="url(#pecbe71a0d1)" style="fill: #005f73; stroke: #000000; stroke-width: 0.8; stroke-linejoin: miter"/>
   </g>
   <g id="patch_25">
    <path d="M 177.583124 275.21565 
L 287.783751 275.21565 
L 287.783751 275.21565 
L 177.583124 275.21565 
z
" clip-path="url(#pecbe71a0d1)" style="fill: #005f73; stroke: #000000; stroke-width: 0.8; stroke-linejoin: miter"/>
   </g>
   <g id="patch_26">
    <path d="M 300.028265 275.21565 
L 410.228892 275.21565 
L 410.228892 275.21565 
L 300.028265 275.21565 
z
" clip-path="url(#pecbe71a0d1)" style="fill: #005f73; stroke: #000000; stroke-width: 0.8; stroke-linejoin: miter"/>
   </g>
   <g id="patch_27">
    <path d="M 55.137983 275.21565 
L 165.33861 275.21565 
L 165.33861 275.21565 
L 55.137983 275.21565 
z
" clip-path="url(#pecbe71a0d1)" style="fill: #0a9396; stroke: #000000; stroke-width: 0.8; stroke-linejoin: miter"/>
   </g>
   <g id="patch_28">
    <path d="M 177.583124 275.21565 
L 287.783751 275.21565 
L 287.783751 275.21565 
L 177.583124 275.21565 
z
" clip-path="url(#pecbe71a0d1)" style="fill: #0a9396; stroke: #000000; stroke-width: 0.8; stroke-linejoin: miter"/>
   </g>
   <g id="patch_29">
    <path d="M 300.028265 275.21565 
L 410.228892 275.21565 
L 410.228892 275.21565 
L 300.028265 275.21565 
z
" clip-path="url(#pecbe71a0d1)" style="fill: #0a9396; stroke: #000000; stroke-width: 0.8; stroke-linejoin: miter"/>
   </g>
   <g id="patch_30">
    <path d="M 55.137983 275.21565 
L 165.33861 275.21565 
L 165.33861 275.21565 
L 55.137983 275.21565 
z
" clip-path="url(#pecbe71a0d1)" style="fill: #94d2bd; stroke: #000000; stroke-width: 0.8; stroke-linejoin: miter"/>
   </g>
   <g id="patch_31">
    <path d="M 177.583124 275.21565 
L 287.783751 275.21565 
L 287.783751 275.21565 
L 177.583124 275.21565 
z
" clip-path="url(#pecbe71a0d1)" style="fill: #94d2bd; stroke: #000000; stroke-width: 0.8; stroke-linejoin: miter"/>
   </g>
   <g id="patch_32">
    <path d="M 300.028265 275.21565 
L 410.228892 275.21565 
L 410.228892 275.21565 
L 300.028265 275.21565 
z
" clip-path="url(#pecbe71a0d1)" style="fill: #94d2bd; stroke: #000000; stroke-width: 0.8; stroke-linejoin: miter"/>
   </g>
   <g id="patch_33">
    <path d="M 55.137983 275.21565 
L 165.33861 275.21565 
L 165.33861 275.21565 
L 55.137983 275.21565 
z
" clip-path="url(#pecbe71a0d1)" style="fill: #e9d8a6; stroke: #000000; stroke-width: 0.8; stroke-linejoin: miter"/>
   </g>
   <g id="patch_34">
    <path d="M 177.583124 275.21565 
L 287.783751 275.21565 
L 287.783751 275.21565 
L 177.583124 275.21565 
z
" clip-path="url(#pecbe71a0d1)" style="fill: #e9d8a6; stroke: #000000; stroke-width: 0.8; stroke-linejoin: miter"/>
   </g>
   <g id="patch_35">
    <path d="M 300.028265 275.21565 
L 410.228892 275.21565 
L 410.228892 275.21565 
L 300.028265 275.21565 
z
" clip-path="url(#pecbe71a0d1)" style="fill: #e9d8a6; stroke: #000000; stroke-width: 0.8; stroke-linejoin: miter"/>
   </g>
   <g id="patch_36">
    <path d="M 55.137983 275.21565 
L 165.33861 275.21565 
L 165.33861 275.21565 
L 55.137983 275.21565 
z
" clip-path="url(#pecbe71a0d1)" style="fill: #ee9b00; stroke: #000000; stroke-width: 0.8; stroke-linejoin: miter"/>
   </g>
   <g id="patch_37">
    <path d="M 177.583124 275.21565 
L 287.783751 275.21565 
L 287.783751 275.21565 
L 177.583124 275.21565 
z
" clip-path="url(#pecbe71a0d1)" style="fill: #ee9b00; stroke: #000000; stroke-width: 0.8; stroke-linejoin: miter"/>
   </g>
   <g id="patch_38">
    <path d="M 300.028265 275.21565 
L 410.228892 275.21565 
L 410.228892 275.21565 
L 300.028265 275.21565 
z
" clip-path="url(#pecbe71a0d1)" style="fill: #ee9b00; stroke: #000000; stroke-width: 0.8; stroke-linejoin: miter"/>
   </g>
   <g id="patch_39">
    <path d="M 55.137983 275.21565 
L 165.33861 275.21565 
L 165.33861 275.32848 
L 55.137983 275.32848 
z
" clip-path="url(#pecbe71a0d1)" style="fill: #ca6702; stroke: #000000; stroke-width: 0.8; stroke-linejoin: miter"/>
   </g>
   <g id="patch_40">
    <path d="M 177.583124 275.21565 
L 287.783751 275.21565 
L 287.783751 275.32752 
L 177.583124 275.32752 
z
" clip-path="url(#pecbe71a0d1)" style="fill: #ca6702; stroke: #000000; stroke-width: 0.8; stroke-linejoin: miter"/>
   </g>
   <g id="patch_41">
    <path d="M 300.028265 275.21565 
L 410.228892 275.21565 
L 410.228892 275.3226 
L 300.028265 275.3226 
z
" clip-path="url(#pecbe71a0d1)" style="fill: #ca6702; stroke: #000000; stroke-width: 0.8; stroke-linejoin: miter"/>
   </g>
   <g id="patch_42">
    <path d="M 55.137983 275.32848 
L 165.33861 275.32848 
L 165.33861 275.34 
L 55.137983 275.34 
z
" clip-path="url(#pecbe71a0d1)" style="fill: #bb3e03; stroke: #000000; stroke-width: 0.8; stroke-linejoin: miter"/>
   </g>
   <g id="patch_43">
    <path d="M 177.583124 275.32752 
L 287.783751 275.32752 
L 287.783751 275.339012 
L 177.583124 275.339012 
z
" clip-path="url(#pecbe71a0d1)" style="fill: #bb3e03; stroke: #000000; stroke-width: 0.8; stroke-linejoin: miter"/>
   </g>
   <g id="patch_44">
    <path d="M 300.028265 275.3226 
L 410.228892 275.3226 
L 410.228892 275.333986 
L 300.028265 275.333986 
z
" clip-path="url(#pecbe71a0d1)" style="fill: #bb3e03; stroke: #000000; stroke-width: 0.8; stroke-linejoin: miter"/>
   </g>
   <g id="matplotlib.axis_1">
    <g id="xtick_1">
     <g id="line2d_1">
      <defs>
       <path id="m294f3ef1fa" d="M 0 0 
L 0 3.5 
" style="stroke: #000000; stroke-width: 0.8"/>
      </defs>
      <g>
       <use xlink:href="#m294f3ef1fa" x="110.238296" y="288.54" style="stroke: #000000; stroke-width: 0.8"/>
      </g>
     </g>
     <g id="text_1">
      <!-- 2025 -->
      <g transform="translate(98.942984 303.360312) scale(0.1 -0.1)">
       <defs>
        <path id="HardingTextWeb-Regular-32" d="M 3040 3418 
Q 3040 3002 2825 2598 
Q 2611 2195 2297 1836 
Q 1984 1478 1619 1168 
Q 1254 858 954 621 
L 1926 621 
Q 2125 621 2329 640 
Q 2534 659 2713 691 
Q 2893 723 3040 761 
Q 3187 800 3270 838 
L 3091 0 
L 243 0 
L 141 224 
Q 576 653 963 1046 
Q 1350 1440 1638 1811 
Q 1926 2182 2096 2547 
Q 2266 2912 2266 3283 
Q 2266 3648 2061 3872 
Q 1856 4096 1434 4096 
Q 1069 4096 845 3952 
Q 621 3808 403 3494 
L 262 3584 
Q 429 4051 790 4371 
Q 1152 4691 1728 4691 
Q 2406 4691 2723 4329 
Q 3040 3968 3040 3418 
z
" transform="scale(0.015625)"/>
        <path id="HardingTextWeb-Regular-30" d="M 2112 4691 
Q 2509 4691 2838 4537 
Q 3168 4384 3405 4089 
Q 3642 3795 3776 3356 
Q 3910 2918 3910 2355 
Q 3910 1766 3760 1308 
Q 3610 851 3363 547 
Q 3117 243 2793 83 
Q 2470 -77 2125 -77 
Q 1734 -77 1404 76 
Q 1075 230 838 524 
Q 602 819 467 1260 
Q 333 1702 333 2266 
Q 333 2854 483 3308 
Q 634 3763 877 4070 
Q 1120 4378 1443 4534 
Q 1766 4691 2112 4691 
z
M 2125 269 
Q 2605 269 2851 755 
Q 3098 1242 3098 2342 
Q 3098 3443 2845 3894 
Q 2592 4346 2112 4346 
Q 1638 4346 1388 3862 
Q 1139 3379 1139 2278 
Q 1139 1178 1395 723 
Q 1651 269 2125 269 
z
" transform="scale(0.015625)"/>
        <path id="HardingTextWeb-Regular-35" d="M 1325 256 
Q 1792 256 2035 496 
Q 2278 736 2278 1254 
Q 2278 1478 2198 1673 
Q 2118 1869 1923 2038 
Q 1728 2208 1382 2352 
Q 1037 2496 512 2624 
L 1037 4621 
L 2995 4621 
L 2784 3910 
Q 2637 3942 2368 3968 
Q 2099 3994 1862 3994 
L 1197 3994 
L 998 3213 
Q 1421 3110 1785 2966 
Q 2150 2822 2412 2620 
Q 2675 2419 2822 2153 
Q 2970 1888 2970 1549 
Q 2970 1165 2838 861 
Q 2707 557 2486 349 
Q 2266 141 1965 32 
Q 1664 -77 1325 -77 
Q 934 -77 697 -9 
Q 461 58 224 166 
L 160 826 
Q 410 602 720 429 
Q 1030 256 1325 256 
z
" transform="scale(0.015625)"/>
       </defs>
       <use xlink:href="#HardingTextWeb-Regular-32"/>
       <use xlink:href="#HardingTextWeb-Regular-30" x="54.199997"/>
       <use xlink:href="#HardingTextWeb-Regular-32" x="120.499985"/>
       <use xlink:href="#HardingTextWeb-Regular-35" x="174.699982"/>
      </g>
     </g>
    </g>
    <g id="xtick_2">
     <g id="line2d_2">
      <g>
       <use xlink:href="#m294f3ef1fa" x="232.683438" y="288.54" style="stroke: #000000; stroke-width: 0.8"/>
      </g>
     </g>
     <g id="text_2">
      <!-- 2030 -->
      <g transform="translate(220.608438 303.360312) scale(0.1 -0.1)">
       <defs>
        <path id="HardingTextWeb-Regular-33" d="M 2451 1446 
Q 2451 1850 2246 2042 
Q 2042 2234 1677 2234 
Q 1517 2234 1389 2205 
Q 1261 2176 1139 2112 
L 1037 2310 
Q 1261 2426 1459 2541 
Q 1658 2656 1805 2787 
Q 1952 2918 2038 3084 
Q 2125 3251 2125 3469 
Q 2125 3782 1923 3968 
Q 1722 4154 1395 4154 
Q 1030 4154 809 4000 
Q 589 3846 429 3584 
L 282 3667 
Q 416 4109 761 4400 
Q 1107 4691 1626 4691 
Q 2227 4691 2544 4422 
Q 2861 4154 2861 3654 
Q 2861 3270 2633 3030 
Q 2406 2790 2099 2618 
L 2099 2598 
Q 2630 2573 2924 2278 
Q 3219 1984 3219 1555 
Q 3219 1126 3068 816 
Q 2918 506 2672 307 
Q 2426 109 2099 16 
Q 1773 -77 1427 -77 
Q 1088 -77 797 -9 
Q 506 58 288 166 
L 237 800 
Q 474 595 758 428 
Q 1043 262 1318 262 
Q 1875 262 2163 537 
Q 2451 813 2451 1446 
z
" transform="scale(0.015625)"/>
       </defs>
       <use xlink:href="#HardingTextWeb-Regular-32"/>
       <use xlink:href="#HardingTextWeb-Regular-30" x="54.199997"/>
       <use xlink:href="#HardingTextWeb-Regular-33" x="120.499985"/>
       <use xlink:href="#HardingTextWeb-Regular-30" x="175.199982"/>
      </g>
     </g>
    </g>
    <g id="xtick_3">
     <g id="line2d_3">
      <g>
       <use xlink:href="#m294f3ef1fa" x="355.128579" y="288.54" style="stroke: #000000; stroke-width: 0.8"/>
      </g>
     </g>
     <g id="text_3">
      <!-- 2050 -->
      <g transform="translate(343.228579 303.360312) scale(0.1 -0.1)">
       <use xlink:href="#HardingTextWeb-Regular-32"/>
       <use xlink:href="#HardingTextWeb-Regular-30" x="54.199997"/>
       <use xlink:href="#HardingTextWeb-Regular-35" x="120.499985"/>
       <use xlink:href="#HardingTextWeb-Regular-30" x="171.699982"/>
      </g>
     </g>
    </g>
   </g>
   <g id="matplotlib.axis_2">
    <g id="ytick_1">
     <g id="line2d_4">
      <defs>
       <path id="m2e349d7f1c" d="M 0 0 
L 3.5 0 
" style="stroke: #000000; stroke-width: 0.8"/>
      </defs>
      <g>
       <use xlink:href="#m2e349d7f1c" x="37.383437" y="275.21565" style="stroke: #000000; stroke-width: 0.8"/>
      </g>
     </g>
     <g id="text_4">
      <!-- 0.0 -->
      <g transform="translate(21.160937 278.255025) scale(0.08 -0.08)">
       <defs>
        <path id="DejaVuSans-30" d="M 2034 4250 
Q 1547 4250 1301 3770 
Q 1056 3291 1056 2328 
Q 1056 1369 1301 889 
Q 1547 409 2034 409 
Q 2525 409 2770 889 
Q 3016 1369 3016 2328 
Q 3016 3291 2770 3770 
Q 2525 4250 2034 4250 
z
M 2034 4750 
Q 2819 4750 3233 4129 
Q 3647 3509 3647 2328 
Q 3647 1150 3233 529 
Q 2819 -91 2034 -91 
Q 1250 -91 836 529 
Q 422 1150 422 2328 
Q 422 3509 836 4129 
Q 1250 4750 2034 4750 
z
" transform="scale(0.015625)"/>
        <path id="DejaVuSans-2e" d="M 684 794 
L 1344 794 
L 1344 0 
L 684 0 
L 684 794 
z
" transform="scale(0.015625)"/>
       </defs>
       <use xlink:href="#DejaVuSans-30"/>
       <use xlink:href="#DejaVuSans-2e" x="63.623047"/>
       <use xlink:href="#DejaVuSans-30" x="95.410156"/>
      </g>
     </g>
    </g>
    <g id="ytick_2">
     <g id="line2d_5">
      <g>
       <use xlink:href="#m2e349d7f1c" x="37.383437" y="243.920394" style="stroke: #000000; stroke-width: 0.8"/>
      </g>
     </g>
     <g id="text_5">
      <!-- 0.2 -->
      <g transform="translate(21.160937 246.959769) scale(0.08 -0.08)">
       <defs>
        <path id="DejaVuSans-32" d="M 1228 531 
L 3431 531 
L 3431 0 
L 469 0 
L 469 531 
Q 828 903 1448 1529 
Q 2069 2156 2228 2338 
Q 2531 2678 2651 2914 
Q 2772 3150 2772 3378 
Q 2772 3750 2511 3984 
Q 2250 4219 1831 4219 
Q 1534 4219 1204 4116 
Q 875 4013 500 3803 
L 500 4441 
Q 881 4594 1212 4672 
Q 1544 4750 1819 4750 
Q 2544 4750 2975 4387 
Q 3406 4025 3406 3419 
Q 3406 3131 3298 2873 
Q 3191 2616 2906 2266 
Q 2828 2175 2409 1742 
Q 1991 1309 1228 531 
z
" transform="scale(0.015625)"/>
       </defs>
       <use xlink:href="#DejaVuSans-30"/>
       <use xlink:href="#DejaVuSans-2e" x="63.623047"/>
       <use xlink:href="#DejaVuSans-32" x="95.410156"/>
      </g>
     </g>
    </g>
    <g id="ytick_3">
     <g id="line2d_6">
      <g>
       <use xlink:href="#m2e349d7f1c" x="37.383437" y="212.625137" style="stroke: #000000; stroke-width: 0.8"/>
      </g>
     </g>
     <g id="text_6">
      <!-- 0.4 -->
      <g transform="translate(21.160937 215.664512) scale(0.08 -0.08)">
       <defs>
        <path id="DejaVuSans-34" d="M 2419 4116 
L 825 1625 
L 2419 1625 
L 2419 4116 
z
M 2253 4666 
L 3047 4666 
L 3047 1625 
L 3713 1625 
L 3713 1100 
L 3047 1100 
L 3047 0 
L 2419 0 
L 2419 1100 
L 313 1100 
L 313 1709 
L 2253 4666 
z
" transform="scale(0.015625)"/>
       </defs>
       <use xlink:href="#DejaVuSans-30"/>
       <use xlink:href="#DejaVuSans-2e" x="63.623047"/>
       <use xlink:href="#DejaVuSans-34" x="95.410156"/>
      </g>
     </g>
    </g>
    <g id="ytick_4">
     <g id="line2d_7">
      <g>
       <use xlink:href="#m2e349d7f1c" x="37.383437" y="181.32988" style="stroke: #000000; stroke-width: 0.8"/>
      </g>
     </g>
     <g id="text_7">
      <!-- 0.6 -->
      <g transform="translate(21.160937 184.369255) scale(0.08 -0.08)">
       <defs>
        <path id="DejaVuSans-36" d="M 2113 2584 
Q 1688 2584 1439 2293 
Q 1191 2003 1191 1497 
Q 1191 994 1439 701 
Q 1688 409 2113 409 
Q 2538 409 2786 701 
Q 3034 994 3034 1497 
Q 3034 2003 2786 2293 
Q 2538 2584 2113 2584 
z
M 3366 4563 
L 3366 3988 
Q 3128 4100 2886 4159 
Q 2644 4219 2406 4219 
Q 1781 4219 1451 3797 
Q 1122 3375 1075 2522 
Q 1259 2794 1537 2939 
Q 1816 3084 2150 3084 
Q 2853 3084 3261 2657 
Q 3669 2231 3669 1497 
Q 3669 778 3244 343 
Q 2819 -91 2113 -91 
Q 1303 -91 875 529 
Q 447 1150 447 2328 
Q 447 3434 972 4092 
Q 1497 4750 2381 4750 
Q 2619 4750 2861 4703 
Q 3103 4656 3366 4563 
z
" transform="scale(0.015625)"/>
       </defs>
       <use xlink:href="#DejaVuSans-30"/>
       <use xlink:href="#DejaVuSans-2e" x="63.623047"/>
       <use xlink:href="#DejaVuSans-36" x="95.410156"/>
      </g>
     </g>
    </g>
    <g id="ytick_5">
     <g id="line2d_8">
      <g>
       <use xlink:href="#m2e349d7f1c" x="37.383437" y="150.034623" style="stroke: #000000; stroke-width: 0.8"/>
      </g>
     </g>
     <g id="text_8">
      <!-- 0.8 -->
      <g transform="translate(21.160937 153.073998) scale(0.08 -0.08)">
       <defs>
        <path id="DejaVuSans-38" d="M 2034 2216 
Q 1584 2216 1326 1975 
Q 1069 1734 1069 1313 
Q 1069 891 1326 650 
Q 1584 409 2034 409 
Q 2484 409 2743 651 
Q 3003 894 3003 1313 
Q 3003 1734 2745 1975 
Q 2488 2216 2034 2216 
z
M 1403 2484 
Q 997 2584 770 2862 
Q 544 3141 544 3541 
Q 544 4100 942 4425 
Q 1341 4750 2034 4750 
Q 2731 4750 3128 4425 
Q 3525 4100 3525 3541 
Q 3525 3141 3298 2862 
Q 3072 2584 2669 2484 
Q 3125 2378 3379 2068 
Q 3634 1759 3634 1313 
Q 3634 634 3220 271 
Q 2806 -91 2034 -91 
Q 1263 -91 848 271 
Q 434 634 434 1313 
Q 434 1759 690 2068 
Q 947 2378 1403 2484 
z
M 1172 3481 
Q 1172 3119 1398 2916 
Q 1625 2713 2034 2713 
Q 2441 2713 2670 2916 
Q 2900 3119 2900 3481 
Q 2900 3844 2670 4047 
Q 2441 4250 2034 4250 
Q 1625 4250 1398 4047 
Q 1172 3844 1172 3481 
z
" transform="scale(0.015625)"/>
       </defs>
       <use xlink:href="#DejaVuSans-30"/>
       <use xlink:href="#DejaVuSans-2e" x="63.623047"/>
       <use xlink:href="#DejaVuSans-38" x="95.410156"/>
      </g>
     </g>
    </g>
    <g id="ytick_6">
     <g id="line2d_9">
      <g>
       <use xlink:href="#m2e349d7f1c" x="37.383437" y="118.739366" style="stroke: #000000; stroke-width: 0.8"/>
      </g>
     </g>
     <g id="text_9">
      <!-- 1.0 -->
      <g transform="translate(21.160937 121.778741) scale(0.08 -0.08)">
       <defs>
        <path id="DejaVuSans-31" d="M 794 531 
L 1825 531 
L 1825 4091 
L 703 3866 
L 703 4441 
L 1819 4666 
L 2450 4666 
L 2450 531 
L 3481 531 
L 3481 0 
L 794 0 
L 794 531 
z
" transform="scale(0.015625)"/>
       </defs>
       <use xlink:href="#DejaVuSans-31"/>
       <use xlink:href="#DejaVuSans-2e" x="63.623047"/>
       <use xlink:href="#DejaVuSans-30" x="95.410156"/>
      </g>
     </g>
    </g>
    <g id="ytick_7">
     <g id="line2d_10">
      <g>
       <use xlink:href="#m2e349d7f1c" x="37.383437" y="87.44411" style="stroke: #000000; stroke-width: 0.8"/>
      </g>
     </g>
     <g id="text_10">
      <!-- 1.2 -->
      <g transform="translate(21.160937 90.483485) scale(0.08 -0.08)">
       <use xlink:href="#DejaVuSans-31"/>
       <use xlink:href="#DejaVuSans-2e" x="63.623047"/>
       <use xlink:href="#DejaVuSans-32" x="95.410156"/>
      </g>
     </g>
    </g>
    <g id="ytick_8">
     <g id="line2d_11">
      <g>
       <use xlink:href="#m2e349d7f1c" x="37.383437" y="56.148853" style="stroke: #000000; stroke-width: 0.8"/>
      </g>
     </g>
     <g id="text_11">
      <!-- 1.4 -->
      <g transform="translate(21.160937 59.188228) scale(0.08 -0.08)">
       <use xlink:href="#DejaVuSans-31"/>
       <use xlink:href="#DejaVuSans-2e" x="63.623047"/>
       <use xlink:href="#DejaVuSans-34" x="95.410156"/>
      </g>
     </g>
    </g>
    <g id="ytick_9">
     <g id="line2d_12">
      <g>
       <use xlink:href="#m2e349d7f1c" x="37.383437" y="24.853596" style="stroke: #000000; stroke-width: 0.8"/>
      </g>
     </g>
     <g id="text_12">
      <!-- 1.6 -->
      <g transform="translate(21.160937 27.892971) scale(0.08 -0.08)">
       <use xlink:href="#DejaVuSans-31"/>
       <use xlink:href="#DejaVuSans-2e" x="63.623047"/>
       <use xlink:href="#DejaVuSans-36" x="95.410156"/>
      </g>
     </g>
    </g>
    <g id="ytick_10">
     <g id="line2d_13">
      <defs>
       <path id="me19d1cba12" d="M 0 0 
L 2 0 
" style="stroke: #000000; stroke-width: 0.6"/>
      </defs>
      <g>
       <use xlink:href="#me19d1cba12" x="37.383437" y="283.039465" style="stroke: #000000; stroke-width: 0.6"/>
      </g>
     </g>
    </g>
    <g id="ytick_11">
     <g id="line2d_14">
      <g>
       <use xlink:href="#me19d1cba12" x="37.383437" y="267.391836" style="stroke: #000000; stroke-width: 0.6"/>
      </g>
     </g>
    </g>
    <g id="ytick_12">
     <g id="line2d_15">
      <g>
       <use xlink:href="#me19d1cba12" x="37.383437" y="259.568022" style="stroke: #000000; stroke-width: 0.6"/>
      </g>
     </g>
    </g>
    <g id="ytick_13">
     <g id="line2d_16">
      <g>
       <use xlink:href="#me19d1cba12" x="37.383437" y="251.744208" style="stroke: #000000; stroke-width: 0.6"/>
      </g>
     </g>
    </g>
    <g id="ytick_14">
     <g id="line2d_17">
      <g>
       <use xlink:href="#me19d1cba12" x="37.383437" y="236.096579" style="stroke: #000000; stroke-width: 0.6"/>
      </g>
     </g>
    </g>
    <g id="ytick_15">
     <g id="line2d_18">
      <g>
       <use xlink:href="#me19d1cba12" x="37.383437" y="228.272765" style="stroke: #000000; stroke-width: 0.6"/>
      </g>
     </g>
    </g>
    <g id="ytick_16">
     <g id="line2d_19">
      <g>
       <use xlink:href="#me19d1cba12" x="37.383437" y="220.448951" style="stroke: #000000; stroke-width: 0.6"/>
      </g>
     </g>
    </g>
    <g id="ytick_17">
     <g id="line2d_20">
      <g>
       <use xlink:href="#me19d1cba12" x="37.383437" y="204.801323" style="stroke: #000000; stroke-width: 0.6"/>
      </g>
     </g>
    </g>
    <g id="ytick_18">
     <g id="line2d_21">
      <g>
       <use xlink:href="#me19d1cba12" x="37.383437" y="196.977508" style="stroke: #000000; stroke-width: 0.6"/>
      </g>
     </g>
    </g>
    <g id="ytick_19">
     <g id="line2d_22">
      <g>
       <use xlink:href="#me19d1cba12" x="37.383437" y="189.153694" style="stroke: #000000; stroke-width: 0.6"/>
      </g>
     </g>
    </g>
    <g id="ytick_20">
     <g id="line2d_23">
      <g>
       <use xlink:href="#me19d1cba12" x="37.383437" y="173.506066" style="stroke: #000000; stroke-width: 0.6"/>
      </g>
     </g>
    </g>
    <g id="ytick_21">
     <g id="line2d_24">
      <g>
       <use xlink:href="#me19d1cba12" x="37.383437" y="165.682252" style="stroke: #000000; stroke-width: 0.6"/>
      </g>
     </g>
    </g>
    <g id="ytick_22">
     <g id="line2d_25">
      <g>
       <use xlink:href="#me19d1cba12" x="37.383437" y="157.858437" style="stroke: #000000; stroke-width: 0.6"/>
      </g>
     </g>
    </g>
    <g id="ytick_23">
     <g id="line2d_26">
      <g>
       <use xlink:href="#me19d1cba12" x="37.383437" y="142.210809" style="stroke: #000000; stroke-width: 0.6"/>
      </g>
     </g>
    </g>
    <g id="ytick_24">
     <g id="line2d_27">
      <g>
       <use xlink:href="#me19d1cba12" x="37.383437" y="134.386995" style="stroke: #000000; stroke-width: 0.6"/>
      </g>
     </g>
    </g>
    <g id="ytick_25">
     <g id="line2d_28">
      <g>
       <use xlink:href="#me19d1cba12" x="37.383437" y="126.563181" style="stroke: #000000; stroke-width: 0.6"/>
      </g>
     </g>
    </g>
    <g id="ytick_26">
     <g id="line2d_29">
      <g>
       <use xlink:href="#me19d1cba12" x="37.383437" y="110.915552" style="stroke: #000000; stroke-width: 0.6"/>
      </g>
     </g>
    </g>
    <g id="ytick_27">
     <g id="line2d_30">
      <g>
       <use xlink:href="#me19d1cba12" x="37.383437" y="103.091738" style="stroke: #000000; stroke-width: 0.6"/>
      </g>
     </g>
    </g>
    <g id="ytick_28">
     <g id="line2d_31">
      <g>
       <use xlink:href="#me19d1cba12" x="37.383437" y="95.267924" style="stroke: #000000; stroke-width: 0.6"/>
      </g>
     </g>
    </g>
    <g id="ytick_29">
     <g id="line2d_32">
      <g>
       <use xlink:href="#me19d1cba12" x="37.383437" y="79.620295" style="stroke: #000000; stroke-width: 0.6"/>
      </g>
     </g>
    </g>
    <g id="ytick_30">
     <g id="line2d_33">
      <g>
       <use xlink:href="#me19d1cba12" x="37.383437" y="71.796481" style="stroke: #000000; stroke-width: 0.6"/>
      </g>
     </g>
    </g>
    <g id="ytick_31">
     <g id="line2d_34">
      <g>
       <use xlink:href="#me19d1cba12" x="37.383437" y="63.972667" style="stroke: #000000; stroke-width: 0.6"/>
      </g>
     </g>
    </g>
    <g id="ytick_32">
     <g id="line2d_35">
      <g>
       <use xlink:href="#me19d1cba12" x="37.383437" y="48.325039" style="stroke: #000000; stroke-width: 0.6"/>
      </g>
     </g>
    </g>
    <g id="ytick_33">
     <g id="line2d_36">
      <g>
       <use xlink:href="#me19d1cba12" x="37.383437" y="40.501224" style="stroke: #000000; stroke-width: 0.6"/>
      </g>
     </g>
    </g>
    <g id="ytick_34">
     <g id="line2d_37">
      <g>
       <use xlink:href="#me19d1cba12" x="37.383437" y="32.67741" style="stroke: #000000; stroke-width: 0.6"/>
      </g>
     </g>
    </g>
    <g id="ytick_35">
     <g id="line2d_38">
      <g>
       <use xlink:href="#me19d1cba12" x="37.383437" y="17.029782" style="stroke: #000000; stroke-width: 0.6"/>
      </g>
     </g>
    </g>
    <g id="text_13">
     <!-- kgCO₂eq/kgH₂ -->
     <g transform="translate(15.020312 184.29) rotate(-90) scale(0.1 -0.1)">
      <defs>
       <path id="HardingTextWeb-Regular-6b" d="M 1357 0 
L 435 0 
Q 512 243 531 563 
Q 550 883 550 1158 
L 550 3898 
Q 550 4173 476 4384 
Q 403 4595 288 4704 
L 1216 5005 
L 1267 4966 
Q 1267 4934 1260 4806 
Q 1254 4678 1251 4531 
Q 1248 4384 1245 4256 
Q 1242 4128 1242 4090 
L 1242 1818 
L 2074 2733 
Q 2272 2950 2358 3116 
Q 2445 3283 2483 3424 
L 3226 3424 
Q 3027 3245 2848 3053 
Q 2669 2861 2458 2637 
L 1850 1990 
L 2688 877 
Q 2867 640 3062 425 
Q 3258 211 3475 0 
L 2541 0 
L 1242 1709 
L 1242 1158 
Q 1242 883 1261 563 
Q 1280 243 1357 0 
z
" transform="scale(0.015625)"/>
       <path id="HardingTextWeb-Regular-67" d="M 1664 1120 
Q 1523 1120 1382 1142 
Q 1242 1165 1114 1210 
Q 1011 1146 966 1072 
Q 922 998 922 896 
Q 922 774 1008 704 
Q 1094 634 1261 634 
Q 1414 634 1593 640 
Q 1773 646 1958 649 
Q 2144 653 2326 659 
Q 2509 666 2662 666 
Q 3085 666 3321 467 
Q 3558 269 3558 -115 
Q 3558 -397 3417 -630 
Q 3277 -864 3021 -1027 
Q 2765 -1190 2400 -1280 
Q 2035 -1370 1594 -1370 
Q 813 -1370 457 -1146 
Q 102 -922 102 -653 
Q 102 -378 332 -198 
Q 563 -19 870 64 
L 870 90 
Q 710 115 553 256 
Q 397 397 397 646 
Q 397 890 537 1050 
Q 678 1210 883 1274 
L 883 1299 
Q 614 1440 448 1686 
Q 282 1933 282 2272 
Q 282 2554 394 2781 
Q 506 3008 694 3168 
Q 883 3328 1136 3414 
Q 1389 3501 1664 3501 
Q 1888 3501 2102 3449 
Q 2317 3398 2490 3296 
L 3520 3603 
L 3520 2944 
Q 3379 2963 3164 3004 
Q 2950 3046 2771 3053 
Q 2899 2925 2976 2752 
Q 3053 2579 3053 2362 
Q 3053 2080 2937 1849 
Q 2822 1619 2633 1459 
Q 2445 1299 2192 1209 
Q 1939 1120 1664 1120 
z
M 1651 3181 
Q 1350 3181 1164 2969 
Q 979 2758 979 2285 
Q 979 1869 1180 1654 
Q 1382 1440 1677 1440 
Q 1971 1440 2169 1657 
Q 2368 1875 2368 2349 
Q 2368 2765 2157 2973 
Q 1946 3181 1651 3181 
z
M 730 -557 
Q 730 -794 941 -931 
Q 1152 -1069 1594 -1069 
Q 2298 -1069 2662 -857 
Q 3027 -646 3027 -384 
Q 3027 -147 2902 -64 
Q 2778 19 2560 19 
Q 2419 19 2201 12 
Q 1984 6 1763 -3 
Q 1542 -13 1363 -19 
Q 1184 -26 1120 -32 
Q 960 -58 845 -205 
Q 730 -352 730 -557 
z
" transform="scale(0.015625)"/>
       <path id="HardingTextWeb-Regular-43" d="M 2547 294 
Q 2822 294 3036 374 
Q 3251 454 3417 576 
Q 3584 698 3715 848 
Q 3846 998 3955 1133 
L 4013 1133 
L 3949 339 
Q 3744 179 3373 51 
Q 3002 -77 2496 -77 
Q 2010 -77 1603 86 
Q 1197 250 909 557 
Q 621 864 461 1309 
Q 301 1754 301 2310 
Q 301 2874 489 3322 
Q 678 3770 985 4074 
Q 1293 4378 1696 4538 
Q 2099 4698 2528 4698 
Q 2912 4698 3280 4624 
Q 3648 4550 3878 4410 
L 3962 3565 
L 3898 3565 
Q 3616 3930 3293 4128 
Q 2970 4326 2528 4326 
Q 1888 4326 1523 3811 
Q 1158 3296 1158 2368 
Q 1158 1376 1539 835 
Q 1920 294 2547 294 
z
" transform="scale(0.015625)"/>
       <path id="HardingTextWeb-Regular-4f" d="M 2445 4691 
Q 2867 4691 3257 4544 
Q 3648 4397 3945 4105 
Q 4243 3814 4422 3379 
Q 4602 2944 4602 2374 
Q 4602 1779 4406 1318 
Q 4211 858 3907 550 
Q 3603 243 3219 83 
Q 2835 -77 2458 -77 
Q 2035 -77 1641 70 
Q 1248 218 953 509 
Q 659 800 480 1238 
Q 301 1677 301 2246 
Q 301 2842 496 3299 
Q 691 3757 995 4064 
Q 1299 4371 1683 4531 
Q 2067 4691 2445 4691 
z
M 2458 282 
Q 3021 282 3392 755 
Q 3763 1229 3763 2310 
Q 3763 2848 3664 3235 
Q 3565 3622 3389 3865 
Q 3213 4109 2969 4221 
Q 2726 4333 2445 4333 
Q 1888 4333 1513 3856 
Q 1139 3379 1139 2298 
Q 1139 1760 1241 1376 
Q 1344 992 1520 749 
Q 1696 506 1936 394 
Q 2176 282 2458 282 
z
" transform="scale(0.015625)"/>
       <path id="HardingTextWeb-Regular-2082" d="M 2400 1510 
Q 2400 1254 2253 1004 
Q 2106 755 1888 534 
Q 1670 314 1420 118 
Q 1171 -77 966 -230 
L 1632 -230 
Q 1914 -230 2176 -182 
Q 2438 -134 2566 -83 
L 2445 -704 
L 397 -704 
L 326 -525 
Q 627 -250 892 0 
Q 1158 250 1356 486 
Q 1555 723 1670 950 
Q 1786 1178 1786 1402 
Q 1786 1619 1651 1776 
Q 1517 1933 1210 1933 
Q 973 1933 806 1837 
Q 640 1741 506 1542 
L 390 1606 
Q 506 1914 768 2131 
Q 1030 2349 1446 2349 
Q 1926 2349 2163 2109 
Q 2400 1869 2400 1510 
z
" transform="scale(0.015625)"/>
       <path id="HardingTextWeb-Regular-65" d="M 3162 781 
Q 3040 448 2707 185 
Q 2374 -77 1811 -77 
Q 1510 -77 1228 28 
Q 947 134 736 345 
Q 525 557 397 880 
Q 269 1203 269 1626 
Q 269 2042 384 2387 
Q 499 2733 704 2979 
Q 909 3226 1193 3363 
Q 1478 3501 1811 3501 
Q 2496 3501 2819 3085 
Q 3142 2669 3142 1869 
L 966 1869 
L 966 1792 
Q 966 1082 1283 781 
Q 1600 480 2086 480 
Q 2528 480 2777 624 
Q 3027 768 3149 902 
L 3162 781 
z
M 1798 3168 
Q 1459 3168 1251 2909 
Q 1043 2650 986 2163 
L 2426 2202 
Q 2413 2662 2288 2915 
Q 2163 3168 1798 3168 
z
" transform="scale(0.015625)"/>
       <path id="HardingTextWeb-Regular-71" d="M 2694 -173 
L 2694 486 
L 2675 486 
Q 2573 262 2333 92 
Q 2093 -77 1690 -77 
Q 1421 -77 1168 28 
Q 915 134 723 345 
Q 531 557 412 873 
Q 294 1190 294 1606 
Q 294 2086 451 2444 
Q 608 2803 854 3036 
Q 1101 3270 1405 3385 
Q 1709 3501 2003 3501 
Q 2272 3501 2525 3401 
Q 2778 3302 2886 3149 
L 2925 3149 
L 3283 3507 
L 3386 3488 
L 3386 -173 
Q 3386 -486 3418 -793 
Q 3450 -1101 3520 -1331 
L 2579 -1331 
Q 2656 -1088 2675 -768 
Q 2694 -448 2694 -173 
z
M 2694 774 
L 2694 2470 
Q 2688 2746 2489 2954 
Q 2291 3162 1939 3162 
Q 1555 3162 1289 2822 
Q 1024 2483 1024 1837 
Q 1024 1133 1299 781 
Q 1574 429 1958 429 
Q 2214 429 2422 541 
Q 2630 653 2694 774 
z
" transform="scale(0.015625)"/>
       <path id="HardingTextWeb-Regular-2f" d="M -154 -832 
L 1933 4934 
L 2394 4934 
L 307 -832 
L -154 -832 
z
" transform="scale(0.015625)"/>
       <path id="HardingTextWeb-Regular-48" d="M 1350 1203 
Q 1350 928 1388 592 
Q 1427 256 1491 0 
L 422 0 
Q 506 256 544 592 
Q 582 928 582 1203 
L 582 3418 
Q 582 3693 544 4029 
Q 506 4365 422 4621 
L 1491 4621 
Q 1427 4365 1388 4029 
Q 1350 3693 1350 3418 
L 1350 2515 
L 3392 2515 
L 3392 3418 
Q 3392 3693 3357 4029 
Q 3322 4365 3238 4621 
L 4301 4621 
Q 4237 4365 4198 4029 
Q 4160 3693 4160 3418 
L 4160 1203 
Q 4160 928 4198 592 
Q 4237 256 4301 0 
L 3238 0 
Q 3322 256 3357 592 
Q 3392 928 3392 1203 
L 3392 2170 
L 1350 2170 
L 1350 1203 
z
" transform="scale(0.015625)"/>
      </defs>
      <use xlink:href="#HardingTextWeb-Regular-6b"/>
      <use xlink:href="#HardingTextWeb-Regular-67" x="54.499985"/>
      <use xlink:href="#HardingTextWeb-Regular-43" x="112.699982"/>
      <use xlink:href="#HardingTextWeb-Regular-4f" x="180.899963"/>
      <use xlink:href="#HardingTextWeb-Regular-2082" x="257.499954"/>
      <use xlink:href="#HardingTextWeb-Regular-65" x="302.999939"/>
      <use xlink:href="#HardingTextWeb-Regular-71" x="356.199936"/>
      <use xlink:href="#HardingTextWeb-Regular-2f" x="417.299927"/>
      <use xlink:href="#HardingTextWeb-Regular-6b" x="454.699921"/>
      <use xlink:href="#HardingTextWeb-Regular-67" x="509.199905"/>
      <use xlink:href="#HardingTextWeb-Regular-48" x="567.399902"/>
      <use xlink:href="#HardingTextWeb-Regular-2082" x="641.499893"/>
     </g>
    </g>
   </g>
   <g id="patch_45">
    <path d="M 37.383437 288.54 
L 37.383437 11.34 
" style="fill: none; stroke: #000000; stroke-width: 0.8; stroke-linejoin: miter; stroke-linecap: square"/>
   </g>
   <g id="patch_46">
    <path d="M 37.383437 288.54 
L 427.983438 288.54 
" style="fill: none; stroke: #000000; stroke-width: 0.8; stroke-linejoin: miter; stroke-linecap: square"/>
   </g>
   <g id="legend_1">
    <g id="patch_47">
     <path d="M 316.303703 17.838281 
L 334.303703 17.838281 
L 334.303703 11.538281 
L 316.303703 11.538281 
z
" style="fill: #005f73; stroke: #000000; stroke-width: 0.8; stroke-linejoin: miter"/>
    </g>
    <g id="text_14">
     <!-- Solar electricity -->
     <g transform="translate(341.503703 17.838281) scale(0.09 -0.09)">
      <defs>
       <path id="HardingTextWeb-Regular-53" d="M 1811 4698 
Q 2240 4698 2480 4621 
Q 2720 4544 2912 4454 
L 2957 3693 
L 2925 3693 
Q 2739 3981 2425 4157 
Q 2112 4333 1747 4333 
Q 1389 4333 1203 4166 
Q 1018 4000 1018 3699 
Q 1018 3398 1226 3200 
Q 1434 3002 2010 2733 
Q 2560 2477 2921 2179 
Q 3283 1882 3283 1306 
Q 3283 1037 3190 784 
Q 3098 531 2902 342 
Q 2707 154 2400 38 
Q 2093 -77 1664 -77 
Q 1280 -77 941 3 
Q 602 83 320 237 
L 269 1114 
L 301 1114 
Q 538 781 909 531 
Q 1280 282 1677 282 
Q 2118 282 2345 467 
Q 2573 653 2573 992 
Q 2573 1357 2358 1581 
Q 2144 1805 1683 2035 
Q 1382 2176 1129 2307 
Q 877 2438 697 2598 
Q 518 2758 416 2972 
Q 314 3187 314 3494 
Q 314 4019 717 4358 
Q 1120 4698 1811 4698 
z
" transform="scale(0.015625)"/>
       <path id="HardingTextWeb-Regular-6f" d="M 1965 -77 
Q 1613 -77 1302 48 
Q 992 173 765 400 
Q 538 627 403 953 
Q 269 1280 269 1677 
Q 269 2093 403 2432 
Q 538 2771 765 3004 
Q 992 3238 1289 3366 
Q 1587 3494 1907 3494 
Q 2259 3494 2569 3369 
Q 2880 3245 3107 3017 
Q 3334 2790 3468 2467 
Q 3603 2144 3603 1747 
Q 3603 1331 3468 992 
Q 3334 653 3107 416 
Q 2880 179 2582 51 
Q 2285 -77 1965 -77 
z
M 1907 3162 
Q 1517 3162 1273 2810 
Q 1030 2458 1030 1754 
Q 1030 1024 1296 643 
Q 1562 262 1965 262 
Q 2355 262 2598 614 
Q 2842 966 2842 1670 
Q 2842 2400 2576 2781 
Q 2310 3162 1907 3162 
z
" transform="scale(0.015625)"/>
       <path id="HardingTextWeb-Regular-6c" d="M 1376 0 
L 448 0 
Q 525 243 547 563 
Q 570 883 570 1158 
L 570 3853 
Q 570 4128 493 4361 
Q 416 4595 307 4704 
L 1235 5005 
L 1286 4966 
Q 1286 4934 1280 4809 
Q 1274 4685 1267 4541 
Q 1261 4397 1257 4269 
Q 1254 4141 1254 4102 
L 1254 1158 
Q 1254 883 1276 563 
Q 1299 243 1376 0 
z
" transform="scale(0.015625)"/>
       <path id="HardingTextWeb-Regular-61" d="M 736 2406 
Q 614 2406 512 2486 
Q 410 2566 410 2726 
Q 410 2899 522 3043 
Q 634 3187 813 3289 
Q 992 3392 1222 3446 
Q 1453 3501 1690 3501 
Q 2298 3501 2554 3241 
Q 2810 2982 2810 2470 
L 2810 1158 
Q 2810 883 2829 563 
Q 2848 243 2925 0 
L 2195 0 
Q 2182 102 2172 246 
Q 2163 390 2163 480 
L 2138 480 
Q 2016 256 1801 89 
Q 1587 -77 1197 -77 
Q 774 -77 528 166 
Q 282 410 275 774 
Q 269 1088 486 1325 
Q 704 1562 1152 1722 
L 2118 2054 
L 2118 2515 
Q 2118 2861 1961 3008 
Q 1805 3155 1510 3155 
Q 1318 3155 1225 3081 
Q 1133 3008 1094 2816 
Q 1050 2598 966 2502 
Q 883 2406 736 2406 
z
M 986 883 
Q 986 640 1123 499 
Q 1261 358 1498 358 
Q 1734 358 1894 480 
Q 2054 602 2118 755 
L 2118 1805 
L 1517 1568 
Q 1235 1453 1110 1305 
Q 986 1158 986 883 
z
" transform="scale(0.015625)"/>
       <path id="HardingTextWeb-Regular-72" d="M 1261 3462 
L 1242 2720 
L 1274 2720 
Q 1318 2861 1395 3001 
Q 1472 3142 1581 3251 
Q 1690 3360 1837 3430 
Q 1984 3501 2170 3501 
Q 2227 3501 2326 3485 
Q 2426 3469 2458 3456 
L 2394 2765 
L 2362 2765 
Q 2304 2803 2189 2838 
Q 2074 2874 1952 2874 
Q 1626 2874 1459 2650 
Q 1293 2426 1293 2131 
L 1293 1133 
Q 1293 813 1315 521 
Q 1338 230 1408 0 
L 480 0 
Q 557 243 579 563 
Q 602 883 602 1158 
L 602 2362 
Q 602 2637 525 2870 
Q 448 3104 339 3206 
L 1235 3482 
L 1261 3462 
z
" transform="scale(0.015625)"/>
       <path id="HardingTextWeb-Regular-20" transform="scale(0.015625)"/>
       <path id="HardingTextWeb-Regular-63" d="M 3046 749 
Q 3002 595 2902 448 
Q 2803 301 2652 185 
Q 2502 70 2291 -3 
Q 2080 -77 1811 -77 
Q 1491 -77 1206 38 
Q 922 154 717 371 
Q 512 589 390 905 
Q 269 1222 269 1626 
Q 269 2086 416 2435 
Q 563 2784 800 3021 
Q 1037 3258 1341 3376 
Q 1645 3494 1965 3494 
Q 2528 3494 2768 3283 
Q 3008 3072 3008 2829 
Q 3008 2650 2918 2547 
Q 2829 2445 2650 2445 
Q 2490 2445 2410 2550 
Q 2330 2656 2304 2854 
Q 2291 3053 2220 3107 
Q 2150 3162 1933 3162 
Q 1542 3162 1254 2806 
Q 966 2451 966 1830 
Q 966 1139 1264 803 
Q 1562 467 2042 467 
Q 2368 467 2621 572 
Q 2874 678 3034 858 
L 3046 749 
z
" transform="scale(0.015625)"/>
       <path id="HardingTextWeb-Regular-74" d="M 2304 538 
Q 2298 461 2285 419 
Q 2272 378 2246 314 
Q 2176 141 1987 32 
Q 1798 -77 1498 -77 
Q 1030 -77 793 163 
Q 557 403 557 890 
L 557 2989 
L 102 2989 
L 102 3046 
L 1197 4141 
L 1248 4102 
L 1248 3424 
L 2182 3424 
L 2106 2989 
L 1248 2989 
L 1248 934 
Q 1248 659 1398 544 
Q 1549 429 1773 429 
Q 1933 429 2067 457 
Q 2202 486 2304 538 
z
" transform="scale(0.015625)"/>
       <path id="HardingTextWeb-Regular-69" d="M 915 3942 
Q 723 3942 601 4064 
Q 480 4186 480 4365 
Q 480 4544 601 4665 
Q 723 4787 915 4787 
Q 1114 4787 1235 4665 
Q 1357 4544 1357 4365 
Q 1357 4186 1235 4064 
Q 1114 3942 915 3942 
z
M 1389 0 
L 454 0 
Q 531 243 553 563 
Q 576 883 576 1158 
L 576 2362 
Q 576 2637 499 2870 
Q 422 3104 314 3206 
L 1248 3482 
L 1299 3443 
Q 1293 3411 1286 3283 
Q 1280 3155 1277 3008 
Q 1274 2861 1270 2733 
Q 1267 2605 1267 2566 
L 1267 1158 
Q 1267 883 1289 563 
Q 1312 243 1389 0 
z
" transform="scale(0.015625)"/>
       <path id="HardingTextWeb-Regular-79" d="M 1485 96 
L 531 2541 
Q 416 2835 320 3033 
Q 224 3232 122 3424 
L 1107 3424 
Q 1094 3226 1139 3030 
Q 1184 2835 1293 2528 
L 1837 973 
L 1862 973 
L 2419 2566 
Q 2509 2822 2534 3033 
Q 2560 3245 2528 3424 
L 3251 3424 
Q 3155 3232 3043 2998 
Q 2931 2765 2803 2432 
L 2042 403 
Q 1702 -486 1372 -924 
Q 1043 -1363 595 -1363 
Q 384 -1363 275 -1264 
Q 166 -1165 166 -1011 
Q 166 -870 252 -787 
Q 339 -704 474 -704 
Q 621 -704 691 -758 
Q 762 -813 858 -813 
Q 998 -813 1171 -566 
Q 1344 -320 1485 96 
z
" transform="scale(0.015625)"/>
      </defs>
      <use xlink:href="#HardingTextWeb-Regular-53"/>
      <use xlink:href="#HardingTextWeb-Regular-6f" x="55.499985"/>
      <use xlink:href="#HardingTextWeb-Regular-6c" x="115.999969"/>
      <use xlink:href="#HardingTextWeb-Regular-61" x="144.499954"/>
      <use xlink:href="#HardingTextWeb-Regular-72" x="196.299942"/>
      <use xlink:href="#HardingTextWeb-Regular-20" x="237.799927"/>
      <use xlink:href="#HardingTextWeb-Regular-65" x="255.399918"/>
      <use xlink:href="#HardingTextWeb-Regular-6c" x="308.599915"/>
      <use xlink:href="#HardingTextWeb-Regular-65" x="337.099899"/>
      <use xlink:href="#HardingTextWeb-Regular-63" x="390.299896"/>
      <use xlink:href="#HardingTextWeb-Regular-74" x="441.499893"/>
      <use xlink:href="#HardingTextWeb-Regular-72" x="479.799881"/>
      <use xlink:href="#HardingTextWeb-Regular-69" x="521.299866"/>
      <use xlink:href="#HardingTextWeb-Regular-63" x="549.899857"/>
      <use xlink:href="#HardingTextWeb-Regular-69" x="601.099854"/>
      <use xlink:href="#HardingTextWeb-Regular-74" x="629.699844"/>
      <use xlink:href="#HardingTextWeb-Regular-79" x="667.999832"/>
     </g>
    </g>
    <g id="patch_48">
     <path d="M 316.303703 31.293281 
L 334.303703 31.293281 
L 334.303703 24.993281 
L 316.303703 24.993281 
z
" style="fill: #0a9396; stroke: #000000; stroke-width: 0.8; stroke-linejoin: miter"/>
    </g>
    <g id="text_15">
     <!-- Wind electricity -->
     <g transform="translate(341.503703 31.293281) scale(0.09 -0.09)">
      <defs>
       <path id="HardingTextWeb-Regular-57" d="M 1370 3507 
L 1888 1203 
L 1907 1203 
L 2963 4621 
L 3373 4621 
L 4378 1203 
L 4397 1203 
L 4966 3360 
Q 5050 3699 5098 4028 
Q 5146 4358 5082 4621 
L 5830 4621 
Q 5709 4326 5603 4012 
Q 5498 3699 5395 3322 
L 4499 -13 
L 4032 -13 
L 3002 3315 
L 2970 3315 
L 1914 -13 
L 1440 -13 
L 602 3347 
Q 499 3770 406 4042 
Q 314 4314 173 4621 
L 1312 4621 
Q 1286 4346 1289 4099 
Q 1293 3853 1370 3507 
z
" transform="scale(0.015625)"/>
       <path id="HardingTextWeb-Regular-6e" d="M 288 3206 
L 1190 3482 
L 1216 3462 
L 1197 2886 
L 1222 2886 
Q 1344 3130 1664 3315 
Q 1984 3501 2374 3501 
Q 2893 3501 3104 3261 
Q 3315 3021 3315 2515 
L 3315 1158 
Q 3315 883 3337 563 
Q 3360 243 3437 0 
L 2515 0 
Q 2586 230 2605 512 
Q 2624 794 2624 1107 
L 2624 2426 
Q 2624 2701 2480 2825 
Q 2336 2950 2035 2950 
Q 1798 2950 1596 2870 
Q 1395 2790 1242 2637 
L 1242 1107 
Q 1242 794 1261 512 
Q 1280 230 1350 0 
L 429 0 
Q 506 243 528 563 
Q 550 883 550 1158 
L 550 2362 
Q 550 2637 473 2870 
Q 397 3104 288 3206 
z
" transform="scale(0.015625)"/>
       <path id="HardingTextWeb-Regular-64" d="M 1965 3501 
Q 2202 3501 2400 3456 
Q 2598 3411 2701 3347 
L 2701 3859 
Q 2701 4141 2617 4365 
Q 2534 4589 2432 4698 
L 3379 4998 
L 3430 4960 
Q 3405 4749 3395 4550 
Q 3386 4352 3386 4051 
L 3386 1018 
Q 3386 634 3424 406 
Q 3462 179 3520 0 
L 2733 0 
L 2720 512 
L 2694 512 
Q 2592 275 2349 99 
Q 2106 -77 1702 -77 
Q 1434 -77 1181 28 
Q 928 134 729 345 
Q 531 557 412 877 
Q 294 1197 294 1613 
Q 294 2093 451 2451 
Q 608 2810 848 3040 
Q 1088 3270 1385 3385 
Q 1683 3501 1965 3501 
z
M 2701 787 
L 2701 2579 
Q 2694 2854 2480 3008 
Q 2266 3162 1914 3162 
Q 1530 3162 1274 2822 
Q 1018 2483 1018 1837 
Q 1018 1133 1299 768 
Q 1581 403 1971 403 
Q 2227 403 2425 521 
Q 2624 640 2701 787 
z
" transform="scale(0.015625)"/>
      </defs>
      <use xlink:href="#HardingTextWeb-Regular-57"/>
      <use xlink:href="#HardingTextWeb-Regular-69" x="93.599991"/>
      <use xlink:href="#HardingTextWeb-Regular-6e" x="122.199982"/>
      <use xlink:href="#HardingTextWeb-Regular-64" x="181.899979"/>
      <use xlink:href="#HardingTextWeb-Regular-20" x="243.399963"/>
      <use xlink:href="#HardingTextWeb-Regular-65" x="260.999954"/>
      <use xlink:href="#HardingTextWeb-Regular-6c" x="314.199951"/>
      <use xlink:href="#HardingTextWeb-Regular-65" x="342.699936"/>
      <use xlink:href="#HardingTextWeb-Regular-63" x="395.899933"/>
      <use xlink:href="#HardingTextWeb-Regular-74" x="447.09993"/>
      <use xlink:href="#HardingTextWeb-Regular-72" x="485.399918"/>
      <use xlink:href="#HardingTextWeb-Regular-69" x="526.899902"/>
      <use xlink:href="#HardingTextWeb-Regular-63" x="555.499893"/>
      <use xlink:href="#HardingTextWeb-Regular-69" x="606.69989"/>
      <use xlink:href="#HardingTextWeb-Regular-74" x="635.299881"/>
      <use xlink:href="#HardingTextWeb-Regular-79" x="673.599869"/>
     </g>
    </g>
    <g id="patch_49">
     <path d="M 316.303703 44.748281 
L 334.303703 44.748281 
L 334.303703 38.448281 
L 316.303703 38.448281 
z
" style="fill: #94d2bd; stroke: #000000; stroke-width: 0.8; stroke-linejoin: miter"/>
    </g>
    <g id="text_16">
     <!-- BOP -->
     <g transform="translate(341.503703 44.748281) scale(0.09 -0.09)">
      <defs>
       <path id="HardingTextWeb-Regular-42" d="M 3725 1293 
Q 3725 672 3273 336 
Q 2822 0 2042 0 
L 422 0 
Q 506 256 544 592 
Q 582 928 582 1203 
L 582 3418 
Q 582 3693 544 4029 
Q 506 4365 422 4621 
L 1830 4621 
Q 2618 4621 3050 4361 
Q 3482 4102 3482 3494 
Q 3482 3110 3261 2860 
Q 3040 2611 2650 2496 
L 2650 2477 
Q 3136 2355 3430 2060 
Q 3725 1766 3725 1293 
z
M 1792 4282 
L 1350 4282 
L 1350 2586 
L 1792 2586 
Q 2285 2586 2505 2797 
Q 2726 3008 2726 3475 
Q 2726 3955 2505 4118 
Q 2285 4282 1792 4282 
z
M 2003 2278 
L 1350 2278 
L 1350 326 
L 2003 326 
Q 2502 326 2723 576 
Q 2944 826 2944 1299 
Q 2944 1773 2723 2025 
Q 2502 2278 2003 2278 
z
" transform="scale(0.015625)"/>
       <path id="HardingTextWeb-Regular-50" d="M 1350 1203 
Q 1350 928 1388 592 
Q 1427 256 1491 0 
L 422 0 
Q 506 256 544 592 
Q 582 928 582 1203 
L 582 3418 
Q 582 3693 544 4029 
Q 506 4365 422 4621 
L 1875 4621 
Q 2656 4621 3078 4281 
Q 3501 3942 3501 3322 
Q 3501 2701 3078 2361 
Q 2656 2022 1875 2022 
L 1350 2022 
L 1350 1203 
z
M 1830 4269 
L 1350 4269 
L 1350 2362 
L 1830 2362 
Q 2323 2362 2521 2605 
Q 2720 2848 2720 3322 
Q 2720 3795 2521 4032 
Q 2323 4269 1830 4269 
z
" transform="scale(0.015625)"/>
      </defs>
      <use xlink:href="#HardingTextWeb-Regular-42"/>
      <use xlink:href="#HardingTextWeb-Regular-4f" x="63.099991"/>
      <use xlink:href="#HardingTextWeb-Regular-50" x="139.699982"/>
     </g>
    </g>
    <g id="patch_50">
     <path d="M 316.303703 58.158281 
L 334.303703 58.158281 
L 334.303703 51.858281 
L 316.303703 51.858281 
z
" style="fill: #e9d8a6; stroke: #000000; stroke-width: 0.8; stroke-linejoin: miter"/>
    </g>
    <g id="text_17">
     <!-- Stacks -->
     <g transform="translate(341.503703 58.158281) scale(0.09 -0.09)">
      <defs>
       <path id="HardingTextWeb-Regular-73" d="M 1472 3494 
Q 1805 3494 2022 3446 
Q 2240 3398 2368 3334 
L 2400 2669 
L 2362 2669 
Q 2163 2886 1958 3024 
Q 1754 3162 1472 3162 
Q 1254 3162 1081 3062 
Q 909 2963 909 2739 
Q 909 2522 1065 2390 
Q 1222 2259 1645 2080 
Q 2061 1901 2352 1677 
Q 2643 1453 2643 1043 
Q 2643 838 2576 636 
Q 2509 435 2358 278 
Q 2208 122 1965 22 
Q 1722 -77 1376 -77 
Q 1094 -77 822 -19 
Q 550 38 333 160 
L 294 941 
L 352 941 
Q 531 691 803 476 
Q 1075 262 1370 262 
Q 1728 262 1881 393 
Q 2035 525 2035 774 
Q 2035 1050 1862 1171 
Q 1690 1293 1299 1466 
Q 870 1651 592 1868 
Q 314 2086 314 2515 
Q 314 2931 634 3212 
Q 954 3494 1472 3494 
z
" transform="scale(0.015625)"/>
      </defs>
      <use xlink:href="#HardingTextWeb-Regular-53"/>
      <use xlink:href="#HardingTextWeb-Regular-74" x="55.499985"/>
      <use xlink:href="#HardingTextWeb-Regular-61" x="93.799973"/>
      <use xlink:href="#HardingTextWeb-Regular-63" x="145.59996"/>
      <use xlink:href="#HardingTextWeb-Regular-6b" x="196.799957"/>
      <use xlink:href="#HardingTextWeb-Regular-73" x="251.299942"/>
     </g>
    </g>
    <g id="patch_51">
     <path d="M 316.303703 71.568281 
L 334.303703 71.568281 
L 334.303703 65.268281 
L 316.303703 65.268281 
z
" style="fill: #ee9b00; stroke: #000000; stroke-width: 0.8; stroke-linejoin: miter"/>
    </g>
    <g id="text_18">
     <!-- Water -->
     <g transform="translate(341.503703 71.568281) scale(0.09 -0.09)">
      <use xlink:href="#HardingTextWeb-Regular-57"/>
      <use xlink:href="#HardingTextWeb-Regular-61" x="93.599991"/>
      <use xlink:href="#HardingTextWeb-Regular-74" x="145.399979"/>
      <use xlink:href="#HardingTextWeb-Regular-65" x="183.699966"/>
      <use xlink:href="#HardingTextWeb-Regular-72" x="236.899963"/>
     </g>
    </g>
    <g id="patch_52">
     <path d="M 316.303703 84.978281 
L 334.303703 84.978281 
L 334.303703 78.678281 
L 316.303703 78.678281 
z
" style="fill: #ca6702; stroke: #000000; stroke-width: 0.8; stroke-linejoin: miter"/>
    </g>
    <g id="text_19">
     <!-- EoL BOP -->
     <g transform="translate(341.503703 84.978281) scale(0.09 -0.09)">
      <defs>
       <path id="HardingTextWeb-Regular-45" d="M 3162 0 
L 422 0 
Q 506 256 544 592 
Q 582 928 582 1203 
L 582 3418 
Q 582 3693 544 4029 
Q 506 4365 422 4621 
L 3123 4621 
L 3098 4051 
Q 2829 4166 2493 4214 
Q 2157 4262 1875 4262 
L 1350 4262 
L 1350 2605 
L 1875 2605 
Q 2080 2605 2352 2630 
Q 2624 2656 2829 2694 
L 2765 2138 
Q 2573 2195 2317 2220 
Q 2061 2246 1837 2246 
L 1350 2246 
L 1350 358 
L 1798 358 
Q 1971 358 2176 374 
Q 2381 390 2579 419 
Q 2778 448 2960 493 
Q 3142 538 3270 595 
L 3162 0 
z
" transform="scale(0.015625)"/>
       <path id="HardingTextWeb-Regular-4c" d="M 3174 0 
L 422 0 
Q 506 256 544 592 
Q 582 928 582 1203 
L 582 3418 
Q 582 3693 544 4029 
Q 506 4365 422 4621 
L 1491 4621 
Q 1427 4365 1388 4029 
Q 1350 3693 1350 3418 
L 1350 1203 
Q 1350 1005 1356 800 
Q 1363 595 1376 358 
L 1811 358 
Q 1984 358 2189 377 
Q 2394 397 2592 435 
Q 2790 474 2972 522 
Q 3155 570 3283 627 
L 3174 0 
z
" transform="scale(0.015625)"/>
      </defs>
      <use xlink:href="#HardingTextWeb-Regular-45"/>
      <use xlink:href="#HardingTextWeb-Regular-6f" x="55.199997"/>
      <use xlink:href="#HardingTextWeb-Regular-4c" x="115.699982"/>
      <use xlink:href="#HardingTextWeb-Regular-20" x="170.399979"/>
      <use xlink:href="#HardingTextWeb-Regular-42" x="187.999969"/>
      <use xlink:href="#HardingTextWeb-Regular-4f" x="251.09996"/>
      <use xlink:href="#HardingTextWeb-Regular-50" x="327.699951"/>
     </g>
    </g>
    <g id="patch_53">
     <path d="M 316.303703 98.388281 
L 334.303703 98.388281 
L 334.303703 92.088281 
L 316.303703 92.088281 
z
" style="fill: #bb3e03; stroke: #000000; stroke-width: 0.8; stroke-linejoin: miter"/>
    </g>
    <g id="text_20">
     <!-- EoL Stack -->
     <g transform="translate(341.503703 98.388281) scale(0.09 -0.09)">
      <use xlink:href="#HardingTextWeb-Regular-45"/>
      <use xlink:href="#HardingTextWeb-Regular-6f" x="55.199997"/>
      <use xlink:href="#HardingTextWeb-Regular-4c" x="115.699982"/>
      <use xlink:href="#HardingTextWeb-Regular-20" x="170.399979"/>
      <use xlink:href="#HardingTextWeb-Regular-53" x="187.999969"/>
      <use xlink:href="#HardingTextWeb-Regular-74" x="243.499954"/>
      <use xlink:href="#HardingTextWeb-Regular-61" x="281.799942"/>
      <use xlink:href="#HardingTextWeb-Regular-63" x="333.59993"/>
      <use xlink:href="#HardingTextWeb-Regular-6b" x="384.799927"/>
     </g>
    </g>
   </g>
  </g>
 </g>
 <defs>
  <clipPath id="pecbe71a0d1">
   <rect x="37.383437" y="11.34" width="390.6" height="277.2"/>
  </clipPath>
 </defs>
</svg>
